<svg version="1.1" id="Layer_1" xmlns="http://www.w3.org/2000/svg" xmlns:xlink="http://www.w3.org/1999/xlink" x="0px" y="0px"
	 width="100%" viewBox="0 0 1200 1200" enable-background="new 0 0 1200 1200" xml:space="preserve">
<path fill="#02B902" opacity="1.000000" stroke="none" 
	d="
M1.000001,1040.000000 
	C1.000000,749.637268 1.000000,459.274597 1.305490,168.638214 
	C1.895832,168.196640 2.379502,168.079437 2.437078,167.853607 
	C5.632260,155.321655 9.957797,143.189804 15.809493,131.661987 
	C20.141115,123.128700 24.402138,114.493484 29.579247,106.474831 
	C34.361313,99.068039 40.236320,92.353210 45.798943,85.470184 
	C48.338371,82.327972 51.200615,79.430641 54.062340,76.568100 
	C60.941578,69.686897 67.380051,62.230076 74.949661,56.202724 
	C89.742592,44.423759 105.837669,34.664074 123.212151,26.884146 
	C147.951340,15.806454 173.737061,9.653377 201.191101,8.202350 
	C203.832367,8.257628 205.994537,8.181241 208.156723,8.181108 
	C412.555237,8.168571 616.953735,8.164013 821.352234,8.153271 
	C874.651672,8.150470 927.951111,8.129575 981.654907,8.105922 
	C991.108154,9.407432 1000.134033,10.913611 1009.211121,11.988218 
	C1023.627625,13.694929 1037.408813,17.938793 1050.625000,23.501558 
	C1062.495728,28.497969 1073.788818,34.933174 1085.117920,41.133358 
	C1099.499878,49.004311 1111.978394,59.605820 1123.297852,71.230980 
	C1132.861938,81.053413 1141.206909,92.133072 1149.508179,103.097954 
	C1161.051392,118.345139 1169.268677,135.413361 1175.231201,153.573029 
	C1176.048218,156.061218 1177.290405,158.433319 1177.890869,160.964676 
	C1179.701416,168.597198 1181.292358,176.281830 1182.952759,184.290680 
	C1183.207642,185.746078 1183.478760,186.856903 1183.838135,188.202087 
	C1183.947510,188.602036 1183.968506,188.767624 1183.987305,189.377350 
	C1184.686646,195.544403 1185.388062,201.267334 1186.027710,207.377838 
	C1186.288452,209.006195 1186.611084,210.246979 1186.929688,211.492935 
	C1186.925537,211.498108 1186.908447,211.485107 1186.745117,211.915848 
	C1186.685425,213.556061 1186.788818,214.765533 1186.845825,216.291016 
	C1186.840088,217.029663 1186.880737,217.452301 1186.808594,218.271423 
	C1186.700195,470.986755 1186.703369,723.305603 1186.718628,975.624451 
	C1186.718872,980.447021 1186.862549,985.269592 1186.884033,990.483215 
	C1186.850098,991.925476 1186.871216,992.976685 1186.788574,994.467346 
	C1186.758423,995.776428 1186.832031,996.646118 1186.918213,997.519836 
	C1186.930664,997.523926 1186.932007,997.498901 1186.634399,997.813965 
	C1185.840576,1004.736084 1185.344360,1011.343079 1184.862793,1018.353882 
	C1183.144775,1027.078857 1182.400879,1035.767822 1179.471313,1043.643677 
	C1173.597290,1059.435181 1167.847656,1075.520630 1159.658203,1090.147461 
	C1145.739014,1115.007812 1127.120361,1136.318604 1104.525757,1153.994629 
	C1085.384277,1168.969116 1064.544800,1180.829590 1041.518921,1188.593994 
	C1031.631592,1191.927856 1021.883606,1196.237793 1010.646301,1195.950195 
	C995.639343,1197.204834 981.067993,1199.577881 966.497559,1199.572510 
	C707.129089,1199.475830 447.760620,1199.090454 187.985733,1198.614014 
	C186.722855,1198.391479 185.866455,1198.322021 184.685455,1198.136230 
	C183.905823,1198.038696 183.450775,1198.057739 182.608185,1197.989990 
	C178.119888,1197.255493 174.019135,1196.608032 169.490479,1195.977295 
	C167.732162,1195.951294 166.293610,1196.227051 165.087708,1195.817505 
	C149.633835,1190.569946 133.925430,1185.921387 118.866791,1179.703613 
	C104.445770,1173.749146 91.713661,1164.623047 79.227676,1155.170532 
	C62.476757,1142.489258 47.991352,1127.686157 36.045074,1110.547363 
	C27.651510,1098.505615 19.177479,1086.384888 14.128757,1072.345093 
	C11.083019,1063.875122 7.851597,1055.470215 4.572464,1047.087280 
	C3.612977,1044.634399 2.203337,1042.357544 1.000001,1040.000000 
M358.428131,252.934006 
	C346.172882,259.888947 333.589844,266.329712 321.723358,273.894531 
	C285.027008,297.288116 252.400070,325.365356 225.035660,359.397675 
	C202.278870,387.699646 184.236603,418.662292 172.004837,452.869537 
	C163.279816,477.269897 157.526260,502.302673 155.706024,528.316650 
	C154.200653,549.830383 154.428894,571.260986 157.345398,592.507385 
	C160.409103,614.826233 166.369308,636.501160 174.517441,657.650391 
	C188.652832,694.339966 209.087051,727.057678 234.852600,756.525024 
	C254.743362,779.273682 277.034607,799.461975 301.740051,816.913696 
	C326.646484,834.507385 352.819519,850.005859 381.058594,861.542969 
	C401.257721,869.795349 421.696259,877.838257 442.655151,883.751831 
	C464.889984,890.025391 487.841553,893.791748 510.528198,898.417236 
	C521.914246,900.738647 533.293152,902.825317 543.579468,908.695190 
	C550.365234,912.567383 555.772461,917.532043 556.946594,925.582825 
	C557.921326,932.266541 559.267212,939.153015 558.606018,945.765442 
	C557.190796,959.919739 554.462646,973.938110 552.510986,988.045166 
	C551.378174,996.232910 549.738220,1004.523010 550.060608,1012.698608 
	C550.529236,1024.583008 557.081299,1027.128296 567.014709,1026.695068 
	C579.557800,1026.148071 590.970093,1021.106262 601.560730,1014.962524 
	C629.945557,998.496033 658.458069,982.164368 686.012268,964.373596 
	C717.790955,943.855042 748.899353,922.254822 779.718750,900.309631 
	C799.456177,886.255432 818.546204,871.211914 837.195740,855.731506 
	C857.920288,838.528687 878.476440,821.013245 897.869019,802.348816 
	C914.599792,786.246155 929.933838,768.637451 945.269531,751.154358 
	C963.503113,730.367493 978.657898,707.381836 991.425903,682.829102 
	C1013.927673,639.558472 1024.620728,593.467102 1023.614380,544.810120 
	C1023.125977,521.190857 1019.366516,497.935516 1013.104919,475.055603 
	C999.508911,425.375916 974.208435,382.227234 940.163147,344.071411 
	C913.094727,313.734955 881.515137,288.695496 846.724976,267.718262 
	C811.625549,246.554596 774.159668,230.757767 734.873291,219.297180 
	C701.872070,209.670090 668.124939,203.772751 633.906860,200.760162 
	C596.470581,197.464249 558.985901,197.936554 521.826965,203.327393 
	C497.625824,206.838364 473.563385,211.898926 449.812927,217.776886 
	C418.217041,225.596466 388.148071,237.903976 358.428131,252.934006 
z"/>
<path fill="#000000" opacity="1.000000" stroke="none" 
	d="
M1186.932007,997.498901 
	C1186.932007,997.498901 1186.930664,997.523926 1187.242920,997.286926 
	C1187.666260,996.048157 1187.777100,995.046448 1187.944580,993.587708 
	C1188.002563,735.239624 1188.004272,477.348511 1188.000366,219.457382 
	C1188.000366,218.293716 1187.923340,217.130051 1187.963623,215.562210 
	C1187.666138,213.933731 1187.287231,212.709427 1186.908447,211.485107 
	C1186.908447,211.485107 1186.925537,211.498108 1186.916748,211.034073 
	C1186.886475,209.375748 1186.864990,208.181473 1186.920654,206.541779 
	C1186.694214,201.165115 1186.482056,196.224869 1185.999878,191.311127 
	C1185.916260,190.460922 1184.688721,189.723007 1183.989502,188.933228 
	C1183.968506,188.767624 1183.947510,188.602036 1183.854736,187.815277 
	C1183.511719,186.111450 1183.240356,185.028778 1182.968994,183.946106 
	C1181.292358,176.281830 1179.701416,168.597198 1177.890869,160.964676 
	C1177.290405,158.433319 1176.048218,156.061218 1175.231201,153.573029 
	C1169.268677,135.413361 1161.051392,118.345139 1149.508179,103.097954 
	C1141.206909,92.133072 1132.861938,81.053413 1123.297852,71.230980 
	C1111.978394,59.605820 1099.499878,49.004311 1085.117920,41.133358 
	C1073.788818,34.933174 1062.495728,28.497969 1050.625000,23.501558 
	C1037.408813,17.938793 1023.627625,13.694929 1009.211121,11.988218 
	C1000.134033,10.913611 991.108154,9.407432 981.463013,7.692820 
	C977.555664,7.195168 974.244568,7.015940 970.933533,7.015842 
	C715.671936,7.008278 460.410309,7.012956 205.148697,7.065047 
	C203.669739,7.065349 202.190918,7.744264 200.712036,8.106281 
	C173.737061,9.653377 147.951340,15.806454 123.212151,26.884146 
	C105.837669,34.664074 89.742592,44.423759 74.949661,56.202724 
	C67.380051,62.230076 60.941578,69.686897 54.062340,76.568100 
	C51.200615,79.430641 48.338371,82.327972 45.798943,85.470184 
	C40.236320,92.353210 34.361313,99.068039 29.579247,106.474831 
	C24.402138,114.493484 20.141115,123.128700 15.809493,131.661987 
	C9.957797,143.189804 5.632260,155.321655 2.437078,167.853607 
	C2.379502,168.079437 1.895832,168.196640 1.305490,168.182266 
	C1.000000,112.342094 1.000000,56.684185 1.000000,1.019709 
	C400.928314,1.013139 800.856628,1.013139 1200.892456,1.013139 
	C1200.892456,400.999969 1200.892456,801.000000 1200.898193,1201.000000 
	C1132.915161,1201.000000 1064.926270,1201.000000 996.154785,1200.636230 
	C996.839294,1199.865723 998.305298,1199.455444 999.773438,1199.053345 
	C1003.542603,1198.020874 1007.312622,1196.991943 1011.082336,1195.961670 
	C1021.883606,1196.237793 1031.631592,1191.927856 1041.518921,1188.593994 
	C1064.544800,1180.829590 1085.384277,1168.969116 1104.525757,1153.994629 
	C1127.120361,1136.318604 1145.739014,1115.007812 1159.658203,1090.147461 
	C1167.847656,1075.520630 1173.597290,1059.435181 1179.471313,1043.643677 
	C1182.400879,1035.767822 1183.144775,1027.078857 1185.087646,1017.993164 
	C1185.842529,1010.652161 1186.387329,1004.075500 1186.932007,997.498901 
z"/>
<path fill="#000000" opacity="1.000000" stroke="none" 
	d="
M1.000001,1040.468628 
	C2.203337,1042.357544 3.612977,1044.634399 4.572464,1047.087280 
	C7.851597,1055.470215 11.083019,1063.875122 14.128757,1072.345093 
	C19.177479,1086.384888 27.651510,1098.505615 36.045074,1110.547363 
	C47.991352,1127.686157 62.476757,1142.489258 79.227676,1155.170532 
	C91.713661,1164.623047 104.445770,1173.749146 118.866791,1179.703613 
	C133.925430,1185.921387 149.633835,1190.569946 165.087708,1195.817505 
	C166.293610,1196.227051 167.732162,1195.951294 169.643616,1196.353027 
	C174.482147,1197.428955 178.739624,1198.145874 183.321442,1198.920654 
	C184.081223,1199.021362 184.516663,1199.064209 185.071198,1199.473389 
	C185.126846,1200.226685 185.063431,1200.613281 185.000000,1201.000000 
	C123.744514,1201.000000 62.489025,1201.000000 1.000000,1201.000000 
	C1.000000,1147.645996 1.000000,1094.291626 1.000001,1040.468628 
z"/>
<path fill="#ABEEA8" opacity="1.000000" stroke="none" 
	d="
M1010.646301,1195.950195 
	C1007.312622,1196.991943 1003.542603,1198.020874 999.773438,1199.053345 
	C998.305298,1199.455444 996.839294,1199.865723 995.686157,1200.636230 
	C989.312378,1201.000000 982.624695,1201.000000 975.143799,1200.748535 
	C972.696228,1200.397217 971.041992,1200.209595 969.387756,1200.209473 
	C716.018860,1200.194702 462.649963,1200.191772 209.281082,1200.224976 
	C207.520691,1200.225220 205.760361,1200.730591 204.000000,1201.000000 
	C200.638718,1201.000000 197.277420,1201.000000 193.353607,1200.695068 
	C191.324783,1199.849243 189.858505,1199.308228 188.392212,1198.767334 
	C447.760620,1199.090454 707.129089,1199.475830 966.497559,1199.572510 
	C981.067993,1199.577881 995.639343,1197.204834 1010.646301,1195.950195 
z"/>
<path fill="#C6FFC7" opacity="1.000000" stroke="none" 
	d="
M204.468658,1201.000000 
	C205.760361,1200.730591 207.520691,1200.225220 209.281082,1200.224976 
	C462.649963,1200.191772 716.018860,1200.194702 969.387756,1200.209473 
	C971.041992,1200.209595 972.696228,1200.397217 974.675232,1200.748535 
	C718.312439,1201.000000 461.624878,1201.000000 204.468658,1201.000000 
z"/>
<path fill="#B0F1AE" opacity="1.000000" stroke="none" 
	d="
M187.985748,1198.614014 
	C189.858505,1199.308228 191.324783,1199.849243 192.895538,1200.695068 
	C190.629440,1201.000000 188.258896,1201.000000 185.444183,1201.000000 
	C185.063431,1200.613281 185.126846,1200.226685 185.092911,1199.260498 
	C184.995544,1198.680908 185.010040,1198.252686 185.010040,1198.252686 
	C185.866455,1198.322021 186.722855,1198.391479 187.985748,1198.614014 
z"/>
<path fill="#FEFFFE" opacity="1.000000" stroke="none" 
	d="
M358.744049,252.732025 
	C388.148071,237.903976 418.217041,225.596466 449.812927,217.776886 
	C473.563385,211.898926 497.625824,206.838364 521.826965,203.327393 
	C558.985901,197.936554 596.470581,197.464249 633.906860,200.760162 
	C668.124939,203.772751 701.872070,209.670090 734.873291,219.297180 
	C774.159668,230.757767 811.625549,246.554596 846.724976,267.718262 
	C881.515137,288.695496 913.094727,313.734955 940.163147,344.071411 
	C974.208435,382.227234 999.508911,425.375916 1013.104919,475.055603 
	C1019.366516,497.935516 1023.125977,521.190857 1023.614380,544.810120 
	C1024.620728,593.467102 1013.927673,639.558472 991.425903,682.829102 
	C978.657898,707.381836 963.503113,730.367493 945.269531,751.154358 
	C929.933838,768.637451 914.599792,786.246155 897.869019,802.348816 
	C878.476440,821.013245 857.920288,838.528687 837.195740,855.731506 
	C818.546204,871.211914 799.456177,886.255432 779.718750,900.309631 
	C748.899353,922.254822 717.790955,943.855042 686.012268,964.373596 
	C658.458069,982.164368 629.945557,998.496033 601.560730,1014.962524 
	C590.970093,1021.106262 579.557800,1026.148071 567.014709,1026.695068 
	C557.081299,1027.128296 550.529236,1024.583008 550.060608,1012.698608 
	C549.738220,1004.523010 551.378174,996.232910 552.510986,988.045166 
	C554.462646,973.938110 557.190796,959.919739 558.606018,945.765442 
	C559.267212,939.153015 557.921326,932.266541 556.946594,925.582825 
	C555.772461,917.532043 550.365234,912.567383 543.579468,908.695190 
	C533.293152,902.825317 521.914246,900.738647 510.528198,898.417236 
	C487.841553,893.791748 464.889984,890.025391 442.655151,883.751831 
	C421.696259,877.838257 401.257721,869.795349 381.058594,861.542969 
	C352.819519,850.005859 326.646484,834.507385 301.740051,816.913696 
	C277.034607,799.461975 254.743362,779.273682 234.852600,756.525024 
	C209.087051,727.057678 188.652832,694.339966 174.517441,657.650391 
	C166.369308,636.501160 160.409103,614.826233 157.345398,592.507385 
	C154.428894,571.260986 154.200653,549.830383 155.706024,528.316650 
	C157.526260,502.302673 163.279816,477.269897 172.004837,452.869537 
	C184.236603,418.662292 202.278870,387.699646 225.035660,359.397675 
	C252.400070,325.365356 285.027008,297.288116 321.723358,273.894531 
	C333.589844,266.329712 346.172882,259.888947 358.744049,252.732025 
M694.499939,458.028625 
	C690.667542,458.034180 686.834717,458.005951 683.002808,458.052246 
	C674.803284,458.151245 672.040466,460.970459 672.038269,469.242584 
	C672.029297,502.734039 672.040039,536.225525 672.011169,569.716980 
	C672.009216,571.958435 671.738586,574.199646 671.493591,577.969543 
	C669.000916,575.232605 667.354736,573.707092 666.039001,571.936096 
	C654.450928,556.338379 642.944824,540.679810 631.369446,525.072693 
	C616.138123,504.536194 600.942444,483.972107 585.502258,463.593475 
	C583.817200,461.369446 580.714905,459.091949 578.112244,458.891968 
	C568.507935,458.154053 558.837952,458.160065 549.191650,458.120026 
	C542.519531,458.092316 539.828369,460.824463 539.821655,467.507721 
	C539.759521,529.324951 539.731689,591.142151 539.747009,652.959412 
	C539.748901,660.557556 542.328430,663.084290 549.909851,663.181519 
	C557.906616,663.284058 565.905457,663.224121 573.903381,663.228210 
	C583.459473,663.233032 585.943420,660.766052 585.945679,651.171997 
	C585.953552,617.680603 585.944458,584.189209 585.941895,550.697815 
	C585.941711,548.651367 585.941895,546.604919 585.941895,544.558472 
	C586.390381,544.457642 586.838928,544.356812 587.287415,544.255920 
	C588.430725,545.596436 589.660767,546.873047 590.703369,548.287781 
	C597.599976,557.645691 604.409912,567.067505 611.334473,576.404480 
	C631.405762,603.468445 651.535583,630.488953 671.592957,657.563171 
	C674.373657,661.316650 677.783691,663.339783 682.571167,663.259094 
	C690.733337,663.121460 698.899658,663.243164 707.064209,663.229248 
	C715.814880,663.214355 718.264526,660.751221 718.265381,651.941895 
	C718.270996,591.623962 718.268250,531.305969 718.266418,470.988007 
	C718.266357,469.488434 718.341431,467.980530 718.213501,466.490906 
	C717.852234,462.281586 716.297791,459.065216 711.420044,458.824341 
	C706.111511,458.562256 700.803284,458.294434 694.499939,458.028625 
M846.499878,663.269043 
	C856.664978,663.259766 866.830566,663.312073 876.994873,663.217957 
	C883.094360,663.161499 885.895813,661.092407 886.124756,655.181702 
	C886.523499,644.885986 886.429443,634.555481 886.095825,624.253967 
	C885.930176,619.141357 882.951050,617.063416 877.292358,617.051514 
	C852.797241,617.000183 828.302124,616.989563 803.807129,616.922058 
	C801.224426,616.914917 798.642456,616.630005 795.747742,616.455200 
	C795.747742,606.987671 796.006104,598.163757 795.641357,589.365540 
	C795.452271,584.804382 797.050781,583.834839 801.321838,583.865417 
	C826.482300,584.045349 851.644714,583.947327 876.806519,583.932617 
	C883.343811,583.928772 885.935486,581.812195 886.187012,575.190735 
	C886.528015,566.212769 886.570374,557.208191 886.312927,548.227234 
	C886.060486,539.421082 883.995483,537.679932 875.017395,537.671082 
	C851.022034,537.647461 827.026733,537.667908 803.031372,537.670715 
	C800.742065,537.670959 798.452820,537.670715 796.106934,537.670715 
	C796.106934,526.441528 796.106934,515.879517 796.106934,504.943176 
	C798.106628,504.943176 799.743958,504.943359 801.381287,504.943146 
	C824.376831,504.940247 847.372375,504.963928 870.367798,504.903137 
	C873.510620,504.894836 876.668091,504.590729 879.790710,504.199371 
	C883.813782,503.695190 886.107422,501.343628 886.115906,497.205231 
	C886.137939,486.392365 886.334717,475.566071 885.796936,464.778290 
	C885.696472,462.764282 882.807129,459.799713 880.670593,459.210327 
	C876.588257,458.084137 872.122253,458.090271 867.814514,458.080902 
	C832.654785,458.004456 797.494812,458.027161 762.334961,458.033081 
	C751.297180,458.034943 749.106995,459.937897 749.088989,470.982727 
	C748.991028,530.968933 748.989380,590.955383 749.062317,650.941589 
	C749.074463,660.936584 751.617981,663.240967 761.516113,663.249878 
	C789.510681,663.274902 817.505310,663.265137 846.499878,663.269043 
M343.694580,464.166260 
	C342.873718,460.584442 340.518280,458.774872 336.952484,458.671539 
	C327.806946,458.406464 318.659149,458.145569 309.510742,458.072357 
	C300.770325,458.002411 298.090240,460.540100 298.082581,469.130402 
	C298.028137,530.280640 298.025665,591.430908 298.067871,652.581177 
	C298.073395,660.597168 300.844635,663.212769 308.891510,663.223816 
	C335.884766,663.260864 362.878082,663.261353 389.871368,663.265808 
	C401.868378,663.267761 413.865906,663.309814 425.862152,663.208435 
	C432.043884,663.156250 435.263519,660.887878 435.518372,654.948425 
	C435.952911,644.822083 435.814178,634.638367 435.255341,624.515259 
	C434.954010,619.056824 431.852783,617.059265 426.110870,617.050110 
	C400.950684,617.010010 375.789978,616.904053 350.630707,617.044189 
	C345.963135,617.070129 344.353363,615.790894 344.373688,610.832214 
	C344.563660,564.511108 344.492889,518.188904 344.463928,471.866974 
	C344.462463,469.556946 344.150330,467.247101 343.694580,464.166260 
M508.859314,570.500000 
	C508.853577,536.524780 508.851562,502.549561 508.838959,468.574341 
	C508.836426,461.727692 507.162415,458.946045 500.651672,458.536194 
	C490.541534,457.899811 480.350433,457.903748 470.227600,458.371399 
	C464.663361,458.628418 462.372284,462.232605 462.369965,468.529968 
	C462.347107,530.151550 462.345154,591.773193 462.372986,653.394775 
	C462.375946,659.938599 465.641083,663.173950 472.180695,663.223755 
	C481.173615,663.292236 490.167816,663.296204 499.160706,663.229065 
	C505.748047,663.179932 508.810028,660.047119 508.817291,653.439758 
	C508.847290,626.126526 508.847748,598.813232 508.859314,570.500000 
z"/>
<path fill="#C9FFCA" opacity="1.000000" stroke="none" 
	d="
M201.191101,8.202351 
	C202.190918,7.744264 203.669739,7.065349 205.148697,7.065047 
	C460.410309,7.012956 715.671936,7.008278 970.933533,7.015842 
	C974.244568,7.015940 977.555664,7.195168 981.058594,7.703889 
	C927.951111,8.129575 874.651672,8.150470 821.352234,8.153271 
	C616.953735,8.164013 412.555237,8.168571 208.156723,8.181108 
	C205.994537,8.181241 203.832367,8.257628 201.191101,8.202351 
z"/>
<path fill="#CAFFCC" opacity="1.000000" stroke="none" 
	d="
M1187.882324,215.966385 
	C1187.923340,217.130051 1188.000366,218.293716 1188.000366,219.457382 
	C1188.004272,477.348511 1188.002563,735.239624 1187.695557,993.586670 
	C1187.390015,994.042664 1186.892456,994.027893 1186.892456,994.027893 
	C1186.871216,992.976685 1186.850098,991.925476 1186.975342,990.015320 
	C1187.152466,987.657410 1187.209473,986.158508 1187.209595,984.659546 
	C1187.212891,730.890320 1187.212769,477.121124 1187.199585,223.351913 
	C1187.199463,221.526260 1187.018188,219.700607 1186.921387,217.874939 
	C1186.880737,217.452301 1186.840088,217.029663 1187.093384,216.286774 
	C1187.387329,215.966553 1187.882324,215.966385 1187.882324,215.966385 
z"/>
<path fill="#A5F0A6" opacity="1.000000" stroke="none" 
	d="
M1186.808594,218.271423 
	C1187.018188,219.700607 1187.199463,221.526260 1187.199585,223.351913 
	C1187.212769,477.121124 1187.212891,730.890320 1187.209595,984.659546 
	C1187.209473,986.158508 1187.152466,987.657410 1187.030518,989.624268 
	C1186.862549,985.269592 1186.718872,980.447021 1186.718628,975.624451 
	C1186.703369,723.305603 1186.700195,470.986755 1186.808594,218.271423 
z"/>
<path fill="#B0F5AE" opacity="1.000000" stroke="none" 
	d="
M1183.987305,189.377350 
	C1184.688721,189.723007 1185.916260,190.460922 1185.999878,191.311127 
	C1186.482056,196.224869 1186.694214,201.165115 1186.732178,206.542786 
	C1186.466431,206.989212 1186.089600,206.990265 1186.089600,206.990265 
	C1185.388062,201.267334 1184.686646,195.544403 1183.987305,189.377350 
z"/>
<path fill="#A5F0A6" opacity="1.000000" stroke="none" 
	d="
M1186.634399,997.813965 
	C1186.387329,1004.075500 1185.842529,1010.652161 1185.072998,1017.589417 
	C1185.344360,1011.343079 1185.840576,1004.736084 1186.634399,997.813965 
z"/>
<path fill="#B0F1AE" opacity="1.000000" stroke="none" 
	d="
M182.997116,1198.862793 
	C178.739624,1198.145874 174.482147,1197.428955 170.071533,1196.336182 
	C174.019135,1196.608032 178.119888,1197.255493 182.610199,1198.186157 
	C182.999786,1198.469360 182.997116,1198.862793 182.997116,1198.862793 
z"/>
<path fill="#B0F5AE" opacity="1.000000" stroke="none" 
	d="
M1187.963623,215.562210 
	C1187.882324,215.966385 1187.387329,215.966553 1187.139771,215.970779 
	C1186.788818,214.765533 1186.685425,213.556061 1186.745117,211.915848 
	C1187.287231,212.709427 1187.666138,213.933731 1187.963623,215.562210 
z"/>
<path fill="#A5F0A6" opacity="1.000000" stroke="none" 
	d="
M1186.027710,207.377838 
	C1186.089600,206.990265 1186.466431,206.989212 1186.654907,206.988190 
	C1186.864990,208.181473 1186.886475,209.375748 1186.920898,211.028900 
	C1186.611084,210.246979 1186.288452,209.006195 1186.027710,207.377838 
z"/>
<path fill="#B0F5AE" opacity="1.000000" stroke="none" 
	d="
M1182.952759,184.290680 
	C1183.240356,185.028778 1183.511719,186.111450 1183.766357,187.580933 
	C1183.478760,186.856903 1183.207642,185.746078 1182.952759,184.290680 
z"/>
<path fill="#B0F5AE" opacity="1.000000" stroke="none" 
	d="
M1186.788574,994.467346 
	C1186.892456,994.027893 1187.390015,994.042664 1187.638916,994.043701 
	C1187.777100,995.046448 1187.666260,996.048157 1187.230469,997.282837 
	C1186.832031,996.646118 1186.758423,995.776428 1186.788574,994.467346 
z"/>
<path fill="#ABEEA8" opacity="1.000000" stroke="none" 
	d="
M183.321442,1198.920654 
	C182.997116,1198.862793 182.999786,1198.469360 182.997757,1198.273193 
	C183.450775,1198.057739 183.905823,1198.038696 184.685455,1198.136230 
	C185.010040,1198.252686 184.995544,1198.680908 184.973816,1198.893921 
	C184.516663,1199.064209 184.081223,1199.021362 183.321442,1198.920654 
z"/>
<path fill="#04B804" opacity="1.000000" stroke="none" 
	d="
M694.997437,458.028870 
	C700.803284,458.294434 706.111511,458.562256 711.420044,458.824341 
	C716.297791,459.065216 717.852234,462.281586 718.213501,466.490906 
	C718.341431,467.980530 718.266357,469.488434 718.266418,470.988007 
	C718.268250,531.305969 718.270996,591.623962 718.265381,651.941895 
	C718.264526,660.751221 715.814880,663.214355 707.064209,663.229248 
	C698.899658,663.243164 690.733337,663.121460 682.571167,663.259094 
	C677.783691,663.339783 674.373657,661.316650 671.592957,657.563171 
	C651.535583,630.488953 631.405762,603.468445 611.334473,576.404480 
	C604.409912,567.067505 597.599976,557.645691 590.703369,548.287781 
	C589.660767,546.873047 588.430725,545.596436 587.287415,544.255920 
	C586.838928,544.356812 586.390381,544.457642 585.941895,544.558472 
	C585.941895,546.604919 585.941711,548.651367 585.941895,550.697815 
	C585.944458,584.189209 585.953552,617.680603 585.945679,651.171997 
	C585.943420,660.766052 583.459473,663.233032 573.903381,663.228210 
	C565.905457,663.224121 557.906616,663.284058 549.909851,663.181519 
	C542.328430,663.084290 539.748901,660.557556 539.747009,652.959412 
	C539.731689,591.142151 539.759521,529.324951 539.821655,467.507721 
	C539.828369,460.824463 542.519531,458.092316 549.191650,458.120026 
	C558.837952,458.160065 568.507935,458.154053 578.112244,458.891968 
	C580.714905,459.091949 583.817200,461.369446 585.502258,463.593475 
	C600.942444,483.972107 616.138123,504.536194 631.369446,525.072693 
	C642.944824,540.679810 654.450928,556.338379 666.039001,571.936096 
	C667.354736,573.707092 669.000916,575.232605 671.493591,577.969543 
	C671.738586,574.199646 672.009216,571.958435 672.011169,569.716980 
	C672.040039,536.225525 672.029297,502.734039 672.038269,469.242584 
	C672.040466,460.970459 674.803284,458.151245 683.002808,458.052246 
	C686.834717,458.005951 690.667542,458.034180 694.997437,458.028870 
z"/>
<path fill="#05B805" opacity="1.000000" stroke="none" 
	d="
M845.999878,663.269043 
	C817.505310,663.265137 789.510681,663.274902 761.516113,663.249878 
	C751.617981,663.240967 749.074463,660.936584 749.062317,650.941589 
	C748.989380,590.955383 748.991028,530.968933 749.088989,470.982727 
	C749.106995,459.937897 751.297180,458.034943 762.334961,458.033081 
	C797.494812,458.027161 832.654785,458.004456 867.814514,458.080902 
	C872.122253,458.090271 876.588257,458.084137 880.670593,459.210327 
	C882.807129,459.799713 885.696472,462.764282 885.796936,464.778290 
	C886.334717,475.566071 886.137939,486.392365 886.115906,497.205231 
	C886.107422,501.343628 883.813782,503.695190 879.790710,504.199371 
	C876.668091,504.590729 873.510620,504.894836 870.367798,504.903137 
	C847.372375,504.963928 824.376831,504.940247 801.381287,504.943146 
	C799.743958,504.943359 798.106628,504.943176 796.106934,504.943176 
	C796.106934,515.879517 796.106934,526.441528 796.106934,537.670715 
	C798.452820,537.670715 800.742065,537.670959 803.031372,537.670715 
	C827.026733,537.667908 851.022034,537.647461 875.017395,537.671082 
	C883.995483,537.679932 886.060486,539.421082 886.312927,548.227234 
	C886.570374,557.208191 886.528015,566.212769 886.187012,575.190735 
	C885.935486,581.812195 883.343811,583.928772 876.806519,583.932617 
	C851.644714,583.947327 826.482300,584.045349 801.321838,583.865417 
	C797.050781,583.834839 795.452271,584.804382 795.641357,589.365540 
	C796.006104,598.163757 795.747742,606.987671 795.747742,616.455200 
	C798.642456,616.630005 801.224426,616.914917 803.807129,616.922058 
	C828.302124,616.989563 852.797241,617.000183 877.292358,617.051514 
	C882.951050,617.063416 885.930176,619.141357 886.095825,624.253967 
	C886.429443,634.555481 886.523499,644.885986 886.124756,655.181702 
	C885.895813,661.092407 883.094360,663.161499 876.994873,663.217957 
	C866.830566,663.312073 856.664978,663.259766 845.999878,663.269043 
z"/>
<path fill="#04B804" opacity="1.000000" stroke="none" 
	d="
M343.838715,464.551697 
	C344.150330,467.247101 344.462463,469.556946 344.463928,471.866974 
	C344.492889,518.188904 344.563660,564.511108 344.373688,610.832214 
	C344.353363,615.790894 345.963135,617.070129 350.630707,617.044189 
	C375.789978,616.904053 400.950684,617.010010 426.110870,617.050110 
	C431.852783,617.059265 434.954010,619.056824 435.255341,624.515259 
	C435.814178,634.638367 435.952911,644.822083 435.518372,654.948425 
	C435.263519,660.887878 432.043884,663.156250 425.862152,663.208435 
	C413.865906,663.309814 401.868378,663.267761 389.871368,663.265808 
	C362.878082,663.261353 335.884766,663.260864 308.891510,663.223816 
	C300.844635,663.212769 298.073395,660.597168 298.067871,652.581177 
	C298.025665,591.430908 298.028137,530.280640 298.082581,469.130402 
	C298.090240,460.540100 300.770325,458.002411 309.510742,458.072357 
	C318.659149,458.145569 327.806946,458.406464 336.952484,458.671539 
	C340.518280,458.774872 342.873718,460.584442 343.838715,464.551697 
z"/>
<path fill="#07B807" opacity="1.000000" stroke="none" 
	d="
M508.859192,571.000000 
	C508.847748,598.813232 508.847290,626.126526 508.817291,653.439758 
	C508.810028,660.047119 505.748047,663.179932 499.160706,663.229065 
	C490.167816,663.296204 481.173615,663.292236 472.180695,663.223755 
	C465.641083,663.173950 462.375946,659.938599 462.372986,653.394775 
	C462.345154,591.773193 462.347107,530.151550 462.369965,468.529968 
	C462.372284,462.232605 464.663361,458.628418 470.227600,458.371399 
	C480.350433,457.903748 490.541534,457.899811 500.651672,458.536194 
	C507.162415,458.946045 508.836426,461.727692 508.838959,468.574341 
	C508.851562,502.549561 508.853577,536.524780 508.859192,571.000000 
z"/>
</svg>