<svg version="1.1" id="Layer_1" xmlns="http://www.w3.org/2000/svg" xmlns:xlink="http://www.w3.org/1999/xlink" x="0px" y="0px"
	 width="100%" viewBox="0 0 900 900" enable-background="new 0 0 900 900" xml:space="preserve">
<path fill="#010101" opacity="1.000000" stroke="none" 
	d="
M481.000000,901.000000 
	C320.666656,901.000000 160.833328,901.000000 1.000000,901.000000 
	C1.000000,601.000000 1.000000,301.000000 1.000000,1.000000 
	C301.000000,1.000000 601.000000,1.000000 901.000000,1.000000 
	C901.000000,301.000000 901.000000,601.000000 901.000000,901.000000 
	C761.166687,901.000000 621.333313,901.000000 481.000000,901.000000 
M543.600037,100.947914 
	C520.696228,95.421516 497.384186,92.537849 473.923798,91.404686 
	C435.777466,89.562180 398.033783,92.965675 360.947754,102.386917 
	C325.948242,111.278107 293.473328,125.712357 264.375671,147.295166 
	C215.042892,183.887146 183.617462,233.083435 164.072937,290.528839 
	C152.489685,324.574463 145.975449,359.668671 142.601746,395.430420 
	C137.213013,452.551666 139.648346,509.262299 151.484741,565.432556 
	C160.825058,609.757446 176.592361,651.551697 202.103470,689.330811 
	C223.183823,720.548462 249.407318,746.460083 281.485504,766.289429 
	C330.095245,796.337952 383.838104,808.366699 440.173981,810.738647 
	C470.225647,812.003967 500.075714,809.660339 529.691101,804.182190 
	C575.815430,795.650330 617.114624,777.014038 652.869202,746.390076 
	C696.875977,708.697998 724.403687,662.285767 728.568604,603.553955 
	C730.948486,569.992981 725.276489,537.810242 710.085449,507.679962 
	C690.024719,467.890930 657.616394,441.250427 617.748291,422.978546 
	C613.697571,421.122070 612.012024,418.952332 611.760742,414.546295 
	C610.598511,394.169708 606.837952,374.247681 599.935181,355.013672 
	C586.651062,317.998932 563.675903,289.334564 527.209473,273.008881 
	C495.953400,259.015839 463.090149,256.193970 429.410980,260.777832 
	C395.844696,265.346283 366.679779,279.073303 342.820129,303.267822 
	C335.912628,310.272278 329.987274,318.245300 323.366425,326.063873 
	C341.340393,338.394135 358.182495,349.947968 374.788269,361.339661 
	C375.588501,360.994324 375.982147,360.944580 376.171783,360.721436 
	C376.924042,359.836212 377.629639,358.909424 378.322113,357.975525 
	C386.814911,346.521729 397.387207,337.561066 410.400177,331.664124 
	C435.113037,320.465210 460.807037,320.005524 486.685547,325.984558 
	C521.118835,333.940094 542.244568,361.242371 547.105042,401.265167 
	C546.281555,401.265167 545.480530,401.371796 544.715942,401.249786 
	C514.784424,396.474060 484.685455,395.610046 454.509369,397.820099 
	C426.312042,399.885193 399.487244,406.818939 374.708069,420.968018 
	C326.969177,448.227234 304.799622,502.248688 320.762238,554.014526 
	C331.925171,590.215393 356.705353,613.985229 391.074829,628.280212 
	C420.442383,640.494690 451.004974,642.840637 482.259277,638.079102 
	C519.182190,632.453796 549.998108,616.032104 573.067993,586.223694 
	C591.838684,561.970215 601.715332,533.942810 607.206543,504.129791 
	C608.030273,499.657715 608.816528,495.178741 609.732666,490.076324 
	C626.828613,500.585754 641.019775,512.838318 650.588074,529.484131 
	C671.724121,566.254395 672.101440,604.496399 655.393860,642.639160 
	C638.511230,681.181763 607.848572,706.595703 570.967651,724.900818 
	C546.715515,736.937805 520.594543,742.589294 493.738068,745.302490 
	C449.353485,749.786560 405.632721,747.259033 362.829895,733.862427 
	C312.761566,718.191833 273.944794,688.146667 246.906097,643.095032 
	C221.716644,601.124634 210.391617,554.840942 205.119400,506.792847 
	C200.353638,463.360229 201.174057,419.995422 207.551071,376.721344 
	C213.021103,339.601990 222.736862,303.820312 240.304626,270.494659 
	C257.721863,237.454575 281.596039,210.239624 313.584381,190.444443 
	C347.464508,169.478546 384.825562,159.590363 424.032898,156.006287 
	C462.993378,152.444763 501.557465,155.192902 539.394043,165.605545 
	C581.347778,177.151260 617.437683,198.325104 646.122559,231.406738 
	C667.699707,256.291077 682.351074,285.039673 692.889954,316.035187 
	C694.947815,322.087433 696.803101,328.208527 698.824890,334.525909 
	C719.266174,329.060730 739.076172,323.764313 759.089966,318.413422 
	C752.414001,293.456116 743.631958,270.006134 732.049438,247.650589 
	C705.877625,197.135971 668.838196,156.959717 618.763184,129.328918 
	C595.332520,116.400200 570.372253,107.416580 543.600037,100.947914 
z"/>
<path fill="#FDFDFD" opacity="1.000000" stroke="none" 
	d="
M544.012573,101.007782 
	C570.372253,107.416580 595.332520,116.400200 618.763184,129.328918 
	C668.838196,156.959717 705.877625,197.135971 732.049438,247.650589 
	C743.631958,270.006134 752.414001,293.456116 759.089966,318.413422 
	C739.076172,323.764313 719.266174,329.060730 698.824890,334.525909 
	C696.803101,328.208527 694.947815,322.087433 692.889954,316.035187 
	C682.351074,285.039673 667.699707,256.291077 646.122559,231.406738 
	C617.437683,198.325104 581.347778,177.151260 539.394043,165.605545 
	C501.557465,155.192902 462.993378,152.444763 424.032898,156.006287 
	C384.825562,159.590363 347.464508,169.478546 313.584381,190.444443 
	C281.596039,210.239624 257.721863,237.454575 240.304626,270.494659 
	C222.736862,303.820312 213.021103,339.601990 207.551071,376.721344 
	C201.174057,419.995422 200.353638,463.360229 205.119400,506.792847 
	C210.391617,554.840942 221.716644,601.124634 246.906097,643.095032 
	C273.944794,688.146667 312.761566,718.191833 362.829895,733.862427 
	C405.632721,747.259033 449.353485,749.786560 493.738068,745.302490 
	C520.594543,742.589294 546.715515,736.937805 570.967651,724.900818 
	C607.848572,706.595703 638.511230,681.181763 655.393860,642.639160 
	C672.101440,604.496399 671.724121,566.254395 650.588074,529.484131 
	C641.019775,512.838318 626.828613,500.585754 609.732666,490.076324 
	C608.816528,495.178741 608.030273,499.657715 607.206543,504.129791 
	C601.715332,533.942810 591.838684,561.970215 573.067993,586.223694 
	C549.998108,616.032104 519.182190,632.453796 482.259277,638.079102 
	C451.004974,642.840637 420.442383,640.494690 391.074829,628.280212 
	C356.705353,613.985229 331.925171,590.215393 320.762238,554.014526 
	C304.799622,502.248688 326.969177,448.227234 374.708069,420.968018 
	C399.487244,406.818939 426.312042,399.885193 454.509369,397.820099 
	C484.685455,395.610046 514.784424,396.474060 544.715942,401.249786 
	C545.480530,401.371796 546.281555,401.265167 547.105042,401.265167 
	C542.244568,361.242371 521.118835,333.940094 486.685547,325.984558 
	C460.807037,320.005524 435.113037,320.465210 410.400177,331.664124 
	C397.387207,337.561066 386.814911,346.521729 378.322113,357.975525 
	C377.629639,358.909424 376.924042,359.836212 376.171783,360.721436 
	C375.982147,360.944580 375.588501,360.994324 374.788269,361.339661 
	C358.182495,349.947968 341.340393,338.394135 323.366425,326.063873 
	C329.987274,318.245300 335.912628,310.272278 342.820129,303.267822 
	C366.679779,279.073303 395.844696,265.346283 429.410980,260.777832 
	C463.090149,256.193970 495.953400,259.015839 527.209473,273.008881 
	C563.675903,289.334564 586.651062,317.998932 599.935181,355.013672 
	C606.837952,374.247681 610.598511,394.169708 611.760742,414.546295 
	C612.012024,418.952332 613.697571,421.122070 617.748291,422.978546 
	C657.616394,441.250427 690.024719,467.890930 710.085449,507.679962 
	C725.276489,537.810242 730.948486,569.992981 728.568604,603.553955 
	C724.403687,662.285767 696.875977,708.697998 652.869202,746.390076 
	C617.114624,777.014038 575.815430,795.650330 529.691101,804.182190 
	C500.075714,809.660339 470.225647,812.003967 440.173981,810.738647 
	C383.838104,808.366699 330.095245,796.337952 281.485504,766.289429 
	C249.407318,746.460083 223.183823,720.548462 202.103470,689.330811 
	C176.592361,651.551697 160.825058,609.757446 151.484741,565.432556 
	C139.648346,509.262299 137.213013,452.551666 142.601746,395.430420 
	C145.975449,359.668671 152.489685,324.574463 164.072937,290.528839 
	C183.617462,233.083435 215.042892,183.887146 264.375671,147.295166 
	C293.473328,125.712357 325.948242,111.278107 360.947754,102.386917 
	C398.033783,92.965675 435.777466,89.562180 473.923798,91.404686 
	C497.384186,92.537849 520.696228,95.421516 544.012573,101.007782 
M384.194733,544.239380 
	C389.591339,554.057800 397.678406,561.063538 407.457489,566.205017 
	C426.912689,576.433838 447.801544,578.198425 469.170502,575.887573 
	C496.950226,572.883484 518.648010,560.152161 532.071228,534.945862 
	C542.920776,514.572449 546.883484,492.376923 549.236511,469.749939 
	C549.583069,466.417725 547.381409,466.449097 545.258789,466.031647 
	C512.452209,459.579956 479.422760,458.582855 446.293823,462.636871 
	C430.820007,464.530426 416.037537,469.038025 402.849030,477.782196 
	C379.553375,493.227539 371.770172,520.144287 384.194733,544.239380 
z"/>
<path fill="#020202" opacity="1.000000" stroke="none" 
	d="
M383.997009,543.922485 
	C371.770172,520.144287 379.553375,493.227539 402.849030,477.782196 
	C416.037537,469.038025 430.820007,464.530426 446.293823,462.636871 
	C479.422760,458.582855 512.452209,459.579956 545.258789,466.031647 
	C547.381409,466.449097 549.583069,466.417725 549.236511,469.749939 
	C546.883484,492.376923 542.920776,514.572449 532.071228,534.945862 
	C518.648010,560.152161 496.950226,572.883484 469.170502,575.887573 
	C447.801544,578.198425 426.912689,576.433838 407.457489,566.205017 
	C397.678406,561.063538 389.591339,554.057800 383.997009,543.922485 
z"/>
</svg>